<?xml version="1.0" encoding="iso-8859-1"?>
<!-- Generator: Adobe Illustrator 19.0.0, SVG Export Plug-In . SVG Version: 6.00 Build 0)  -->
<svg xmlns="http://www.w3.org/2000/svg" xmlns:xlink="http://www.w3.org/1999/xlink" version="1.1" id="Capa_1" x="0px" y="0px" viewBox="0 0 455 455" style="enable-background:new 0 0 455 455;" xml:space="preserve" width="512" height="512">
<g>
	<polygon style="fill:#BD1515;" points="360,0 320,227.5 360,455 450,455 450,0  "/>
	<polygon style="fill:#98D9D5;" points="390,30 370,227.5 390,425 420,425 420,30  "/>
	<rect x="340" y="30" style="fill:#FFFFFF;" width="50" height="395"/>
	<rect x="45" y="0" style="fill:#F2484B;" width="315" height="455"/>
	<circle style="fill:#BD1515;" cx="284.5" cy="409.5" r="7.5"/>
	<circle style="fill:#BD1515;" cx="314.5" cy="379.5" r="7.5"/>
	<path style="fill:#FFCC75;" d="M70,392.5H20c-8.284,0-15,6.716-15,15s6.716,15,15,15h50c8.284,0,15-6.716,15-15   S78.284,392.5,70,392.5z"/>
	<path style="fill:#FFCC75;" d="M70,272.5H20c-8.284,0-15,6.716-15,15s6.716,15,15,15h50c8.284,0,15-6.716,15-15   S78.284,272.5,70,272.5z"/>
	<path style="fill:#FFCC75;" d="M70,152.5H20c-8.284,0-15,6.716-15,15s6.716,15,15,15h50c8.284,0,15-6.716,15-15   S78.284,152.5,70,152.5z"/>
	<path style="fill:#FFCC75;" d="M70,32.5H20c-8.284,0-15,6.716-15,15s6.716,15,15,15h50c8.284,0,15-6.716,15-15S78.284,32.5,70,32.5   z"/>
</g>















</svg>
